# AST/ASF file generated using VICON BodyLanguage
# -----------------------------------------------
:version 1.10
:name VICON
:units
  mass 1.0
  length 0.45
  angle deg
:documentation
   .ast/.asf automatically generated from VICON data using
   VICON BodyBuilder and BodyLanguage model FoxedUp or BRILLIANT.MOD
:root
   order TX TY TZ RX RY RZ
   axis XYZ
   position 0 0 0  
   orientation 0 0 0 
:bonedata
  begin
     id 1 
     name lhipjoint
     direction 0.700308 -0.549349 0.455834 
     length 2.59063 
     axis 0 0 0  XYZ
  end
  begin
     id 2 
     name lfemur
     direction 0.34202 -0.939693 0  
     length 6.31066  
     axis 0 0 20  XYZ
    dof rx ry rz
    limits (-160.0 20.0)
           (-70.0 70.0)
           (-60.0 70.0)
  end
  begin
     id 3 
     name ltibia
     direction 0.34202 -0.939693 0   
     length 7.36093   
     axis 0 0 20   XYZ
    dof rx
    limits (-10.0 170.0)
  end
  begin
     id 4 
     name lfoot
     direction 0.0905332 -0.248738 0.96433   
     length 2.0233   
     axis -90 7.62852e-016 20   XYZ
    dof rx rz
    limits (-45.0 90.0)
           (-70.0 20.0)
  end
  begin
     id 5 
     name ltoes
     direction 1.53573e-011 -4.21855e-011 1   
     length 1.01524   
     axis -90 7.62852e-016 20   XYZ
    dof rx
    limits (-90.0 20.0)
  end
  begin
     id 6 
     name rhipjoint
     direction -0.61416 -0.607328 0.503944   
     length 2.34332  
     axis 0 0 0  XYZ 
  end
  begin
     id 7 
     name rfemur
     direction -0.34202 -0.939693 0   
     length 6.58548   
     axis 0 0 -20   XYZ
    dof rx ry rz
    limits (-160.0 20.0)
           (-70.0 70.0)
           (-70.0 60.0)
  end
  begin
     id 8 
     name rtibia
     direction -0.34202 -0.939693 0   
     length 7.20707   
     axis 0 0 -20   XYZ
    dof rx
    limits (-10.0 170.0)
 end
 begin
     id 9 
     name rfoot
     direction -0.136772 -0.375778 0.916561   
     length 1.92184  
     axis -90 -7.62852e-016 -20   XYZ
    dof rx rz
    limits (-45.0 90.0)
           (-20.0 70.0)
  end
  begin
     id 10 
     name rtoes
     direction -1.53535e-011 -4.21828e-011 1   
     length 0.951089   
     axis -90 -7.62852e-016 -20   XYZ
    dof rx
    limits (-90.0 20.0)
  end
  begin
     id 11 
     name lowerback
     direction -0.0444974 0.988086 -0.147332   
     length 1.9609   
     axis 0 0 0   XYZ
    dof rx ry rz
    limits (-20.0 45.0)
           (-30.0 30.0)
           (-30.0 30.0)
  end
  begin
     id 12 
     name upperback
     direction 0.00613146 0.999513 0.0306081   
     length 1.94944   
     axis 0 0 0   XYZ
    dof rx ry rz
    limits (-20.0 45.0)
           (-30.0 30.0)
           (-30.0 30.0)
  end
  begin
     id 13 
     name thorax
     direction 0.0254621 0.994518 0.101418   
     length 2.0119   
     axis 0 0 0   XYZ
    dof rx ry rz
    limits (-20.0 45.0)
           (-30.0 30.0)
           (-30.0 30.0)
  end
  begin
     id 14 
     name lowerneck
     direction 0.0168698 0.977854 0.208608   
     length 1.6375   
     axis 0 0 0   XYZ
    dof rx ry rz
    limits (-20.0 45.0)
           (-30.0 30.0)
           (-30.0 30.0)
  end
  begin
     id 15 
     name upperneck
     direction -0.0283988 0.989338 -0.142843   
     length 1.6851   
     axis 0 0 0   XYZ
    dof rx ry rz
    limits (-20.0 45.0)
           (-30.0 30.0)
           (-30.0 30.0)
  end
  begin
     id 16
     name head
     direction -0.0129422 0.99741 -0.0707489  
     length 1.69029  
     axis 0 0 0   XYZ
    dof rx ry rz
    limits (-20.0 45.0)
           (-30.0 30.0)
           (-30.0 30.0)
  end
  begin
     id 17 
     name lclavicle
     direction 0.820295 0.564628 -0.0911715  
     length 3.16484  
     axis 0 0 0   XYZ
    dof ry rz
    limits (-20.0 10.0)
           (0.0 20.0)
  end
  begin
     id 18 
     name lhumerus
     direction 1 -4.48969e-011 1.00186e-027   
     length 5.17853   
     axis 180 -30 -90   XYZ
    dof rx ry rz
    limits (-60.0 90.0)
           (-90.0 90.0)
           (-90.0 90.0)
  end
  begin
     id 19
     name lradius
     direction 1 -4.48966e-011 -1.52922e-027   
     length 3.40399   
     axis 180 -30 -90   XYZ
    dof rx
    limits (-10.0 170.0)
  end
  begin
     id 20
     name lwrist
     direction 1 -4.48981e-011 -3.80893e-027   
     length 1.70199   
     axis 1.1049e-015 90 90   XYZ
    dof ry
    limits (-180.0 0.0)
 end
  begin
     id 21 
     name lhand
     direction 1 -4.48957e-011 -7.61786e-027   
     length 0.708964   
     axis 4.86085e-015 90 90   XYZ
    dof rx rz
    limits (-90.0 90.0)
           (-45.0 45.0)
  end
  begin
     id 22 
     name lfingers
     direction 1 -4.48929e-011 -1.52357e-026   
     length 0.571585   
     axis 9.7217e-015 90 90   XYZ
    dof rx
    limits (0.0 90.0)
  end
  begin
     id 23
     name lthumb
     direction 0.707107 -6.34905e-011 0.707107   
     length 0.820685   
     axis -90 45 2.85299e-015   XYZ
    dof rx rz
    limits (-45.0 45.0)
           (-45.0 45.0)
  end
  begin
     id 24 
     name rclavicle
     direction -0.858602 0.463947 -0.218075   
     length 3.35137  
     axis 0 0 0   XYZ 
    dof ry rz
    limits (-10.0 20.0)
           (-20.0 0.0)
  end
  begin
     id 25 
     name rhumerus
     direction -1 -4.48969e-011 -1.98511e-027  
     length 5.42351   
     axis 180 30 90   XYZ
    dof rx ry rz
    limits (-90.0 60.0)
           (-90.0 90.0)
           (-90.0 90.0)
  end
  begin
     id 26 
     name rradius
     direction -1 -4.48961e-011 -2.82624e-027   
     length 3.42066   
     axis 180 30 90   XYZ
    dof rx
    limits (-10.0 170.0)
  end
  begin
     id 27 
     name rwrist
     direction -1 -4.48966e-011 -3.80893e-027   
     length 1.71033   
     axis 1.1049e-015 -90 -90   XYZ
    dof ry
    limits (-180.0 0.0)
  end
  begin
     id 28
     name rhand
     direction -1 -4.48964e-011 -7.61786e-027   
     length 0.743608   
     axis 4.86085e-015 -90 -90   XYZ
    dof rx rz
    limits (-90.0 90.0)
           (-45.0 45.0)
  end
  begin
     id 29
     name rfingers
     direction -1 -4.48961e-011 -1.52357e-026   
     length 0.599516   
     axis 9.7217e-015 -90 -90   XYZ
    dof rx
    limits (0.0 90.0)
  end
  begin
     id 30
     name rthumb
     direction -0.707107 -6.34913e-011 0.707107   
     length 0.860789   
     axis -90 -45 -2.85299e-015   XYZ
    dof rx rz
    limits (-45.0 45.0)
           (-45.0 45.0)
  end
:hierarchy
  begin
    root lhipjoint rhipjoint lowerback
    lhipjoint lfemur
    lfemur ltibia
    ltibia lfoot
    lfoot ltoes
    rhipjoint rfemur
    rfemur rtibia
    rtibia rfoot
    rfoot rtoes
    lowerback upperback
    upperback thorax
    thorax lowerneck lclavicle rclavicle
    lowerneck upperneck
    upperneck head
    lclavicle lhumerus
    lhumerus lradius
    lradius lwrist
    lwrist lhand lthumb
    lhand lfingers
    rclavicle rhumerus
    rhumerus rradius
    rradius rwrist
    rwrist rhand rthumb
    rhand rfingers
  end

#!OML:ASF E:\mmandel\Project 1\Capture day 1\Session 2\Subject.ASF
:FULLY-SPECIFIED
:DEGREES
541
root 7.14117 14.584 -1.07145 26.1436 80.9821 7.32473
lowerback 18.27 0.955535 -6.45444
upperback 2.33213 0.159977 0.669372
thorax -7.73488 0.331607 4.35573
lowerneck -16.0595 -4.45847 -2.00297
upperneck 4.67325 -5.54321 0.518672
head 4.03205 -2.72967 0.0369404
rclavicle -2.08227e-014 1.88845e-015
rhumerus 9.03137 22.9076 -86.397
rradius 33.4968
rwrist -10.3571
rhand -12.717 30.4197
rfingers 7.12502
rthumb 13.366 0.868445
lclavicle -2.08227e-014 1.88845e-015
lhumerus -0.689821 -38.7261 72.8268
lradius 47.2074
lwrist 29.5267
lhand -20 -31.9381
lfingers 7.12502
lthumb 6.33981 -2.05301
rfemur -60.571 -5.35416 14.3463
rtibia 68.9216
rfoot -28.6817 -4.08124
rtoes -12.1183
lfemur -52.9369 25.7402 -15.5766
ltibia 62.2723
lfoot -22.207 -4.71725
ltoes -2.11719
542
root 7.13437 14.5828 -1.05624 27.6174 81.1397 8.73624
lowerback 18.2182 0.913214 -6.42632
upperback 2.29312 0.103328 0.573375
thorax -7.74214 0.302843 4.24878
lowerneck -16.3934 -4.3154 -1.78296
upperneck 5.13799 -5.39503 0.506533
head 4.22079 -2.6526 -0.00279062
rclavicle -2.48978e-014 -7.10655e-015
rhumerus 9.41589 21.7171 -87.0213
rradius 31.8884
rwrist -9.4361
rhand -12.8891 30.71
rfingers 7.12502
rthumb 13.2001 1.14787
lclavicle -2.48978e-014 -7.10655e-015
lhumerus -0.333967 -38.7214 72.9062
lradius 46.6662
lwrist 29.8127
lhand -20.2155 -31.7788
lfingers 7.12502
lthumb 6.1318 -1.88758
rfemur -60.7028 -5.5931 14.2547
rtibia 69.0215
rfoot -28.7312 -4.0736
rtoes -12.022
lfemur -53.0326 25.4534 -15.7199
ltibia 62.1662
lfoot -22.103 -4.62906
ltoes -2.14385
543
root 7.12602 14.5826 -1.04354 29.9618 81.1968 10.9422
lowerback 18.1468 0.909382 -6.52769
upperback 2.2258 0.0674204 0.432211
thorax -7.77234 0.28837 4.16154
lowerneck -17.5408 -4.08365 -1.35528
upperneck 6.32108 -5.14041 0.243428
head 4.74917 -2.53033 -0.169319
rclavicle -1.8487e-014 8.44835e-015
rhumerus 9.82423 20.4158 -87.633
rradius 30.3857
rwrist -8.57156
rhand -12.9051 30.8637
rfingers 7.12502
rthumb 13.1846 1.30059
lclavicle -1.8487e-014 8.44835e-015
lhumerus 0.0542806 -38.5718 73.014
lradius 46.1157
lwrist 29.8726
lhand -20.0432 -31.5565
lfingers 7.12502
lthumb 6.29814 -1.67013
rfemur -60.94 -5.88323 13.9989
rtibia 69.1214
rfoot -28.7277 -4.01287
rtoes -11.7115
lfemur -53.2135 25.1762 -16.0877
ltibia 62.049
lfoot -22.0187 -4.52126
ltoes -2.16746
544
root 7.1204 14.5856 -1.03204 31.4243 81.2288 12.3223
lowerback 18.1054 0.942554 -6.56065
upperback 2.17775 0.0996951 0.37926
thorax -7.80615 0.305709 4.11473
lowerneck -16.6547 -3.99553 -1.3908
upperneck 5.42006 -5.03784 0.390079
head 4.33336 -2.47455 -0.0792932
rclavicle -2.24875e-014 1.57537e-014
rhumerus 10.2115 19.1437 -88.1172
rradius 28.9315
rwrist -7.71359
rhand -12.7989 30.512
rfingers 7.12502
rthumb 13.287 0.955507
lclavicle -2.24875e-014 1.57537e-014
lhumerus 0.44262 -38.3123 73.2937
lradius 45.4716
lwrist 29.7269
lhand -19.8196 -31.4955
lfingers 7.12502
lthumb 6.514 -1.61567
rfemur -61.072 -6.04926 13.8603
rtibia 69.1748
rfoot -28.6973 -4.0408
rtoes -11.9899
lfemur -53.3106 25.0687 -16.3318
ltibia 61.9288
lfoot -21.9261 -4.4763
ltoes -2.28738
545
root 7.1193 14.5913 -1.02016 32.4357 81.2954 13.392
lowerback 18.1655 0.952742 -6.58468
upperback 2.1687 0.104196 0.38252
thorax -7.8495 0.31055 4.13125
lowerneck -16.3746 -3.82089 -1.21799
upperneck 5.07116 -4.82284 0.195132
head 4.17059 -2.37764 -0.138599
rclavicle 1.72321e-014 3.74709e-014
rhumerus 10.4575 17.8691 -88.5881
rradius 27.6246
rwrist -6.71796
rhand -12.73 30.1684
rfingers 7.12502
rthumb 13.3534 0.61631
lclavicle 1.72321e-014 3.74709e-014
lhumerus 0.6311 -37.9257 73.7167
lradius 44.8344
lwrist 29.3041
lhand -19.7103 -31.5838
lfingers 7.12502
lthumb 6.61953 -1.70721
rfemur -60.9973 -6.15661 13.7765
rtibia 69.1921
rfoot -28.7108 -4.12996
rtoes -12.5104
lfemur -53.2225 25.0554 -16.4604
ltibia 61.8027
lfoot -21.8598 -4.49699
ltoes -2.6431
546
root 7.11885 14.5939 -1.00866 32.7749 81.4185 13.8319
lowerback 18.2366 0.92065 -6.49162
upperback 2.20955 0.0789379 0.381911
thorax -7.84061 0.295182 4.08389
lowerneck -16.61 -3.63214 -0.972556
upperneck 5.25091 -4.59601 -0.0489155
head 4.25056 -2.27496 -0.240473
rclavicle -1.17594e-014 -2.19533e-014
rhumerus 10.7515 16.3609 -89.2006
rradius 26.301
rwrist -5.45272
rhand -12.7547 30.6547
rfingers 7.12502
rthumb 13.3296 1.10105
lclavicle -1.17594e-014 -2.19533e-014
lhumerus 0.830642 -37.386 74.0022
lradius 44.2985
lwrist 28.8705
lhand -19.332 -31.4421
lfingers 7.12502
lthumb 6.98464 -1.57733
rfemur -60.8269 -6.21934 13.7851
rtibia 69.1924
rfoot -28.7712 -4.0783
rtoes -12.1199
lfemur -53.0955 25.0736 -16.4288
ltibia 61.6992
lfoot -21.7533 -4.73794
ltoes -1.96593
547
root 7.11517 14.5909 -0.995647 32.3269 81.7064 13.4038
lowerback 18.2254 0.863066 -6.19452
upperback 2.24245 0.0693141 0.433292
thorax -7.79743 0.280371 3.97238
lowerneck -16.8519 -3.47952 -0.845081
upperneck 5.47969 -4.41149 -0.113664
head 4.35482 -2.18484 -0.272314
rclavicle 9.27144e-015 3.64304e-014
rhumerus 11.113 14.7248 -89.8062
rradius 24.9099
rwrist -4.15082
rhand -12.9149 31.3685
rfingers 7.12502
rthumb 13.1752 1.80481
lclavicle 9.27144e-015 3.64304e-014
lhumerus 1.20882 -36.9628 74.168
lradius 43.7324
lwrist 28.5606
lhand -19.0917 -31.3798
lfingers 7.12502
lthumb 7.21664 -1.52286
rfemur -60.7307 -6.2832 14.0054
rtibia 69.2095
rfoot -28.8479 -4.09825
rtoes -11.5336
lfemur -53.1299 24.9905 -16.1897
ltibia 61.6351
lfoot -21.5971 -4.99594
ltoes -0.782767
548
root 7.11146 14.5925 -0.981179 32.6801 81.9443 13.7054
lowerback 18.1291 0.851583 -5.99779
upperback 2.232 0.0995283 0.450556
thorax -7.75969 0.287685 3.87093
lowerneck -17.0163 -3.37963 -0.739063
upperneck 5.6229 -4.29466 -0.165761
head 4.42154 -2.12784 -0.299852
rclavicle 2.72708e-015 -1.09704e-014
rhumerus 11.4047 12.8724 -90.4216
rradius 23.5339
rwrist -2.80696
rhand -13.0052 31.6418
rfingers 7.12502
rthumb 13.0882 2.07248
lclavicle 2.72708e-015 -1.09704e-014
lhumerus 1.65025 -36.7734 74.3565
lradius 43.0663
lwrist 28.155
lhand -19.0463 -31.5114
lfingers 7.12502
lthumb 7.26046 -1.65591
rfemur -60.767 -6.41708 14.1422
rtibia 69.244
rfoot -28.869 -4.26807
rtoes -11.5744
lfemur -53.2117 24.8058 -16.0912
ltibia 61.5502
lfoot -21.5445 -4.98731
ltoes -1.0376
549
root 7.111 14.597 -0.969143 34.0274 81.9525 15.0173
lowerback 18.0483 0.907967 -6.01596
upperback 2.21057 0.167473 0.376411
thorax -7.74633 0.319375 3.78377
lowerneck -17.2128 -3.24421 -0.518389
upperneck 5.76926 -4.14599 -0.308084
head 4.49014 -2.05826 -0.371182
rclavicle -1.39646e-014 1.68967e-014
rhumerus 11.5982 10.7427 -91.1047
rradius 22.3002
rwrist -1.24305
rhand -13.125 32.1225
rfingers 7.12502
rthumb 12.9727 2.54577
lclavicle -1.39646e-014 1.68967e-014
lhumerus 2.07874 -36.5503 74.5737
lradius 42.3482
lwrist 27.694
lhand -18.7359 -31.63
lfingers 7.12502
lthumb 7.5601 -1.7851
rfemur -60.8394 -6.55771 14.0419
rtibia 69.2802
rfoot -28.8654 -4.32984
rtoes -11.8088
lfemur -53.1981 24.7002 -16.2496
ltibia 61.4331
lfoot -21.5199 -4.97838
ltoes -1.27842
550
root 7.11111 14.5967 -0.958009 35.4029 81.9398 16.3922
lowerback 18.0806 0.948578 -6.10988
upperback 2.17825 0.193952 0.320796
thorax -7.80232 0.336413 3.77063
lowerneck -17.0329 -2.97816 -0.262785
upperneck 5.56884 -3.8261 -0.511662
head 4.39092 -1.90822 -0.442128
rclavicle -7.28049e-015 -3.65764e-014
rhumerus 11.7512 8.88881 -91.6839
rradius 21.1963
rwrist 0.263559
rhand -13.517 32.8542
rfingers 7.12502
rthumb 12.5948 3.25392
lclavicle -7.28049e-015 -3.65764e-014
lhumerus 2.3107 -35.8396 75.0341
lradius 41.5944
lwrist 27.025
lhand -18.1596 -31.6032
lfingers 7.12502
lthumb 8.11629 -1.77909
rfemur -60.8819 -6.68494 13.9078
rtibia 69.3196
rfoot -28.9335 -4.31168
rtoes -12.0514
lfemur -53.1628 24.5962 -16.4123
ltibia 61.3191
lfoot -21.4466 -5.01008
ltoes -0.843353
551
root 7.10857 14.5991 -0.947272 35.7558 82.0383 16.7535
lowerback 18.1611 0.94701 -6.07468
upperback 2.15433 0.193088 0.330554
thorax -7.87244 0.33773 3.76173
lowerneck -16.5869 -2.74301 -0.128745
upperneck 5.12714 -3.5312 -0.620966
head 4.18049 -1.76685 -0.461014
rclavicle 1.31695e-015 1.55052e-014
rhumerus 11.915 7.28268 -92.2072
rradius 20.1649
rwrist 1.63259
rhand -13.8832 33.3188
rfingers 7.12502
rthumb 12.2418 3.69705
lclavicle 1.31695e-015 1.55052e-014
lhumerus 2.37423 -34.723 75.6354
lradius 40.9919
lwrist 26.2007
lhand -17.5195 -31.2395
lfingers 7.12502
lthumb 8.73402 -1.44019
rfemur -60.8615 -6.74194 13.9467
rtibia 69.3146
rfoot -28.9798 -4.38142
rtoes -12.417
lfemur -53.1363 24.4687 -16.3683
ltibia 61.2075
lfoot -21.3769 -4.90012
ltoes -1.28565
552
root 7.10725 14.6032 -0.937633 35.6236 82.2002 16.6718
lowerback 18.1712 0.943537 -5.88115
upperback 2.20374 0.229319 0.328049
thorax -7.82742 0.347374 3.63957
lowerneck -16.4857 -2.57237 -0.0056565
upperneck 4.98019 -3.32952 -0.617372
head 4.118 -1.66427 -0.460042
rclavicle 6.83322e-015 2.33572e-014
rhumerus 12.0936 5.53111 -92.734
rradius 19.3692
rwrist 2.80936
rhand -14.0822 33.0985
rfingers 7.12502
rthumb 12.0499 3.46539
lclavicle 6.83322e-015 2.33572e-014
lhumerus 2.64632 -34.0098 75.9474
lradius 40.5001
lwrist 25.7255
lhand -17.2918 -30.9085
lfingers 7.12502
lthumb 8.95377 -1.11849
rfemur -60.7438 -6.79406 14.0609
rtibia 69.2931
rfoot -28.9837 -4.45503
rtoes -12.45
lfemur -53.0728 24.4035 -16.2418
ltibia 61.1166
lfoot -21.32 -4.79697
ltoes -2.29375
